<?xml version="1.0" encoding="UTF-8"?>
<svg xmlns="http://www.w3.org/2000/svg" xmlns:xlink="http://www.w3.org/1999/xlink" width="384pt" height="383.999986pt" viewBox="0 0 384 383.999986" version="1.2">
<defs>
<clipPath id="clip1">
  <path d="M 38.398438 38.398438 L 345.898438 38.398438 L 345.898438 345.898438 L 38.398438 345.898438 Z M 38.398438 38.398438 "/>
</clipPath>
</defs>
<g id="surface1">
<g clip-path="url(#clip1)" clip-rule="nonzero">
<path style=" stroke:none;fill-rule:nonzero;fill:rgb(0%,0%,0%);fill-opacity:1;" d="M 192.300781 38.398438 C 107.300781 38.398438 38.398438 99.34375 38.398438 174.542969 C 38.398438 213.066406 56.476562 247.835938 85.53125 272.605469 C 96.304688 281.765625 97.59375 310.6875 50.238281 346.203125 C 121.269531 334.367188 141.21875 303.359375 151.566406 305.859375 C 164.527344 308.996094 178.203125 310.6875 192.300781 310.6875 C 277.304688 310.6875 346.203125 249.742188 346.203125 174.542969 C 346.203125 99.34375 277.304688 38.398438 192.300781 38.398438 Z M 192.300781 298.851562 C 179.421875 298.851562 166.648438 297.335938 154.335938 294.363281 C 153.046875 294.042969 151.671875 293.878906 150.3125 293.878906 C 143.421875 293.878906 137.574219 297.703125 129.5 302.992188 C 120.949219 308.59375 108.839844 316.539062 90.277344 323.523438 C 100.234375 309.683594 103.226562 297.996094 103.5 289.296875 C 103.820312 278.808594 100.078125 269.429688 93.199219 263.582031 C 65.5 239.964844 50.238281 208.355469 50.238281 174.542969 C 50.238281 106.011719 113.964844 50.238281 192.300781 50.238281 C 270.640625 50.238281 334.367188 106.011719 334.367188 174.542969 C 334.367188 243.078125 270.640625 298.851562 192.300781 298.851562 Z M 192.300781 298.851562 "/>
</g>
</g>
</svg>
