<?xml version="1.0" encoding="UTF-8"?>
<svg xmlns="http://www.w3.org/2000/svg" xmlns:xlink="http://www.w3.org/1999/xlink" width="1500pt" height="1499.999933pt" viewBox="0 0 1500 1499.999933" version="1.2">
<defs>
<clipPath id="clip1">
  <path d="M 306.75 150 L 1193.25 150 L 1193.25 1350 L 306.75 1350 Z M 306.75 150 "/>
</clipPath>
</defs>
<g id="surface1">
<g clip-path="url(#clip1)" clip-rule="nonzero">
<path style=" stroke:none;fill-rule:nonzero;fill:rgb(0%,0%,0%);fill-opacity:1;" d="M 851.851562 149.492188 C 850.730469 149.699219 849.609375 150.003906 848.589844 150.308594 L 398.007812 150.308594 C 348.101562 150.308594 306.75 190.945312 306.75 240.75 L 306.75 1242.953125 C 306.75 1301.71875 355.433594 1349.691406 414.304688 1349.691406 L 1085.695312 1349.691406 C 1144.566406 1349.691406 1193.25 1301.71875 1193.25 1242.953125 L 1193.25 494.152344 C 1193.960938 490.691406 1193.960938 487.023438 1193.25 483.5625 L 1193.25 476.226562 C 1193.453125 469.300781 1190.804688 462.476562 1185.917969 457.488281 L 886.070312 157.640625 C 881.082031 152.753906 874.257812 150.105469 867.332031 150.308594 L 859.183594 150.308594 C 856.839844 149.699219 854.292969 149.390625 851.851562 149.492188 Z M 398.007812 202.457031 L 828.21875 202.457031 L 828.21875 420.007812 C 828.21875 472.460938 871.097656 515.339844 923.550781 515.339844 L 1141.101562 515.339844 L 1141.101562 1242.953125 C 1141.101562 1273.40625 1116.457031 1297.542969 1085.695312 1297.542969 L 414.304688 1297.542969 C 383.542969 1297.542969 358.898438 1273.40625 358.898438 1242.953125 L 358.898438 240.75 C 358.898438 219.261719 376.109375 202.457031 398.007812 202.457031 Z M 880.367188 226.898438 L 1116.660156 463.191406 L 923.550781 463.191406 C 899.210938 463.191406 880.367188 444.347656 880.367188 420.007812 Z M 541.410156 723.925781 L 541.410156 776.074219 L 958.589844 776.074219 L 958.589844 723.925781 Z M 541.410156 828.21875 L 541.410156 880.367188 L 958.589844 880.367188 L 958.589844 828.21875 Z M 541.410156 932.515625 L 541.410156 984.660156 L 958.589844 984.660156 L 958.589844 932.515625 Z M 541.410156 1036.808594 L 541.410156 1088.957031 L 776.074219 1088.957031 L 776.074219 1036.808594 Z M 541.410156 1036.808594 "/>
</g>
</g>
</svg>
