<?xml version="1.0" encoding="UTF-8"?>
<svg xmlns="http://www.w3.org/2000/svg" xmlns:xlink="http://www.w3.org/1999/xlink" width="1440pt" height="225pt" viewBox="0 0 1440 225" version="1.2">
<g id="surface1">
<path style=" stroke:none;fill-rule:nonzero;fill:rgb(100%,100%,100%);fill-opacity:1;" d="M 720 -3990.582031 C 686.234375 -3990.582031 652.488281 -3989.753906 618.765625 -3988.097656 C 585.039062 -3986.441406 551.378906 -3983.957031 517.773438 -3980.648438 C 484.171875 -3977.335938 450.671875 -3973.207031 417.269531 -3968.25 C 383.871094 -3963.296875 350.613281 -3957.527344 317.496094 -3950.9375 C 284.378906 -3944.351562 251.445312 -3936.957031 218.691406 -3928.75 C 185.9375 -3920.546875 153.40625 -3911.542969 121.09375 -3901.742188 C 88.78125 -3891.941406 56.730469 -3881.351562 24.941406 -3869.976562 C -6.851562 -3858.601562 -38.34375 -3846.453125 -69.539062 -3833.53125 C -100.734375 -3820.609375 -131.59375 -3806.933594 -162.117188 -3792.496094 C -192.640625 -3778.058594 -222.792969 -3762.882812 -252.570312 -3746.964844 C -282.347656 -3731.046875 -311.71875 -3714.410156 -340.679688 -3697.050781 C -369.640625 -3679.691406 -398.160156 -3661.632812 -426.234375 -3642.875 C -454.308594 -3624.117188 -481.90625 -3604.679688 -509.027344 -3584.566406 C -536.148438 -3564.453125 -562.757812 -3543.683594 -588.859375 -3522.265625 C -614.960938 -3500.84375 -640.519531 -3478.796875 -665.539062 -3456.121094 C -690.554688 -3433.445312 -715.003906 -3410.171875 -738.878906 -3386.292969 C -762.753906 -3362.417969 -786.03125 -3337.972656 -808.703125 -3312.953125 C -831.378906 -3287.933594 -853.429688 -3262.375 -874.847656 -3236.273438 C -896.269531 -3210.171875 -917.035156 -3183.5625 -937.148438 -3156.441406 C -957.265625 -3129.320312 -976.699219 -3101.722656 -995.460938 -3073.648438 C -1014.21875 -3045.574219 -1032.277344 -3017.054688 -1049.636719 -2988.09375 C -1066.996094 -2959.132812 -1083.632812 -2929.765625 -1099.550781 -2899.984375 C -1115.464844 -2870.207031 -1130.644531 -2840.054688 -1145.078125 -2809.53125 C -1159.515625 -2779.007812 -1173.195312 -2748.148438 -1186.117188 -2716.957031 C -1199.039062 -2685.761719 -1211.1875 -2654.265625 -1222.5625 -2622.476562 C -1233.9375 -2590.683594 -1244.523438 -2558.632812 -1254.328125 -2526.320312 C -1264.128906 -2494.011719 -1273.132812 -2461.476562 -1281.335938 -2428.722656 C -1289.539062 -2395.972656 -1296.933594 -2363.035156 -1303.523438 -2329.917969 C -1310.109375 -2296.804688 -1315.878906 -2263.546875 -1320.835938 -2230.144531 C -1325.789062 -2196.746094 -1329.921875 -2163.242188 -1333.230469 -2129.640625 C -1336.539062 -2096.039062 -1339.023438 -2062.375 -1340.679688 -2028.652344 C -1342.335938 -1994.925781 -1343.164062 -1961.179688 -1343.164062 -1927.414062 C -1343.164062 -1893.652344 -1342.335938 -1859.90625 -1340.679688 -1826.179688 C -1339.023438 -1792.457031 -1336.539062 -1758.792969 -1333.230469 -1725.191406 C -1329.921875 -1691.585938 -1325.789062 -1658.085938 -1320.835938 -1624.6875 C -1315.878906 -1591.285156 -1310.109375 -1558.027344 -1303.523438 -1524.914062 C -1296.933594 -1491.796875 -1289.539062 -1458.859375 -1281.335938 -1426.109375 C -1273.132812 -1393.355469 -1264.128906 -1360.820312 -1254.328125 -1328.511719 C -1244.523438 -1296.199219 -1233.9375 -1264.148438 -1222.5625 -1232.355469 C -1211.1875 -1200.566406 -1199.039062 -1169.070312 -1186.117188 -1137.875 C -1173.195312 -1106.683594 -1159.515625 -1075.824219 -1145.078125 -1045.300781 C -1130.644531 -1014.777344 -1115.464844 -984.625 -1099.550781 -954.847656 C -1083.632812 -925.066406 -1066.996094 -895.699219 -1049.636719 -866.738281 C -1032.277344 -837.777344 -1014.21875 -809.257812 -995.460938 -781.183594 C -976.699219 -753.109375 -957.265625 -725.511719 -937.148438 -698.390625 C -917.035156 -671.269531 -896.269531 -644.660156 -874.847656 -618.558594 C -853.429688 -592.457031 -831.378906 -566.898438 -808.703125 -541.878906 C -786.03125 -516.859375 -762.753906 -492.414062 -738.878906 -468.539062 C -715.003906 -444.660156 -690.554688 -421.386719 -665.539062 -398.710938 C -640.519531 -376.035156 -614.960938 -353.988281 -588.859375 -332.566406 C -562.757812 -311.148438 -536.148438 -290.378906 -509.027344 -270.265625 C -481.90625 -250.152344 -454.308594 -230.714844 -426.234375 -211.957031 C -398.160156 -193.199219 -369.640625 -175.140625 -340.679688 -157.78125 C -311.71875 -140.421875 -282.347656 -123.785156 -252.570312 -107.867188 C -222.792969 -91.949219 -192.640625 -76.773438 -162.117188 -62.335938 C -131.59375 -47.898438 -100.734375 -34.222656 -69.539062 -21.300781 C -38.34375 -8.378906 -6.851562 3.769531 24.941406 15.144531 C 56.730469 26.519531 88.785156 37.109375 121.09375 46.910156 C 153.40625 56.710938 185.9375 65.714844 218.691406 73.917969 C 251.445312 82.125 284.378906 89.519531 317.496094 96.105469 C 350.613281 102.695312 383.871094 108.464844 417.269531 113.417969 C 450.671875 118.375 484.171875 122.503906 517.773438 125.816406 C 551.378906 129.125 585.039062 131.609375 618.765625 133.265625 C 652.488281 134.921875 686.234375 135.75 720 135.75 C 753.765625 135.75 787.511719 134.921875 821.234375 133.265625 C 854.960938 131.609375 888.625 129.125 922.226562 125.816406 C 955.828125 122.503906 989.328125 118.375 1022.730469 113.417969 C 1056.128906 108.464844 1089.386719 102.695312 1122.503906 96.105469 C 1155.621094 89.519531 1188.554688 82.121094 1221.308594 73.917969 C 1254.0625 65.714844 1286.59375 56.710938 1318.90625 46.910156 C 1351.214844 37.109375 1383.269531 26.519531 1415.058594 15.144531 C 1446.851562 3.769531 1478.34375 -8.378906 1509.539062 -21.300781 C 1540.734375 -34.222656 1571.59375 -47.902344 1602.117188 -62.335938 C 1632.640625 -76.773438 1662.789062 -91.949219 1692.570312 -107.867188 C 1722.347656 -123.785156 1751.71875 -140.421875 1780.679688 -157.78125 C 1809.640625 -175.140625 1838.160156 -193.199219 1866.234375 -211.957031 C 1894.308594 -230.714844 1921.90625 -250.152344 1949.027344 -270.265625 C 1976.148438 -290.378906 2002.757812 -311.148438 2028.859375 -332.566406 C 2054.960938 -353.988281 2080.519531 -376.035156 2105.539062 -398.710938 C 2130.554688 -421.386719 2155.003906 -444.660156 2178.878906 -468.539062 C 2202.753906 -492.414062 2226.027344 -516.859375 2248.703125 -541.878906 C 2271.378906 -566.898438 2293.425781 -592.457031 2314.847656 -618.558594 C 2336.269531 -644.660156 2357.035156 -671.269531 2377.148438 -698.390625 C 2397.261719 -725.511719 2416.699219 -753.109375 2435.460938 -781.183594 C 2454.21875 -809.257812 2472.277344 -837.777344 2489.636719 -866.738281 C 2506.996094 -895.699219 2523.632812 -925.066406 2539.550781 -954.847656 C 2555.464844 -984.625 2570.644531 -1014.777344 2585.078125 -1045.300781 C 2599.515625 -1075.824219 2613.195312 -1106.683594 2626.117188 -1137.875 C 2639.039062 -1169.070312 2651.1875 -1200.566406 2662.5625 -1232.355469 C 2673.9375 -1264.148438 2684.523438 -1296.199219 2694.328125 -1328.511719 C 2704.128906 -1360.820312 2713.128906 -1393.355469 2721.335938 -1426.109375 C 2729.539062 -1458.859375 2736.933594 -1491.796875 2743.523438 -1524.914062 C 2750.109375 -1558.027344 2755.878906 -1591.285156 2760.835938 -1624.6875 C 2765.789062 -1658.085938 2769.921875 -1691.585938 2773.230469 -1725.191406 C 2776.539062 -1758.792969 2779.023438 -1792.457031 2780.679688 -1826.179688 C 2782.335938 -1859.90625 2783.164062 -1893.652344 2783.164062 -1927.414062 C 2783.164062 -1961.179688 2782.335938 -1994.925781 2780.679688 -2028.652344 C 2779.023438 -2062.375 2776.539062 -2096.039062 2773.230469 -2129.640625 C 2769.921875 -2163.242188 2765.789062 -2196.746094 2760.835938 -2230.144531 C 2755.878906 -2263.546875 2750.109375 -2296.804688 2743.523438 -2329.917969 C 2736.933594 -2363.035156 2729.539062 -2395.972656 2721.335938 -2428.722656 C 2713.128906 -2461.476562 2704.128906 -2494.011719 2694.324219 -2526.320312 C 2684.523438 -2558.632812 2673.9375 -2590.683594 2662.558594 -2622.476562 C 2651.183594 -2654.265625 2639.035156 -2685.761719 2626.117188 -2716.957031 C 2613.195312 -2748.148438 2599.515625 -2779.007812 2585.078125 -2809.53125 C 2570.640625 -2840.054688 2555.464844 -2870.207031 2539.550781 -2899.984375 C 2523.632812 -2929.765625 2506.996094 -2959.132812 2489.636719 -2988.09375 C 2472.277344 -3017.054688 2454.21875 -3045.574219 2435.457031 -3073.648438 C 2416.699219 -3101.722656 2397.261719 -3129.320312 2377.148438 -3156.441406 C 2357.035156 -3183.5625 2336.269531 -3210.171875 2314.847656 -3236.273438 C 2293.425781 -3262.375 2271.378906 -3287.933594 2248.703125 -3312.953125 C 2226.027344 -3337.972656 2202.753906 -3362.417969 2178.878906 -3386.292969 C 2155.003906 -3410.171875 2130.554688 -3433.445312 2105.539062 -3456.121094 C 2080.519531 -3478.796875 2054.960938 -3500.84375 2028.859375 -3522.265625 C 2002.757812 -3543.683594 1976.148438 -3564.453125 1949.027344 -3584.566406 C 1921.90625 -3604.679688 1894.308594 -3624.117188 1866.234375 -3642.875 C 1838.160156 -3661.632812 1809.640625 -3679.691406 1780.679688 -3697.050781 C 1751.71875 -3714.410156 1722.347656 -3731.046875 1692.570312 -3746.964844 C 1662.789062 -3762.882812 1632.640625 -3778.058594 1602.117188 -3792.496094 C 1571.59375 -3806.933594 1540.734375 -3820.609375 1509.539062 -3833.53125 C 1478.34375 -3846.453125 1446.851562 -3858.601562 1415.058594 -3869.976562 C 1383.269531 -3881.351562 1351.214844 -3891.941406 1318.90625 -3901.742188 C 1286.59375 -3911.542969 1254.0625 -3920.546875 1221.308594 -3928.75 C 1188.554688 -3936.957031 1155.621094 -3944.351562 1122.503906 -3950.9375 C 1089.386719 -3957.527344 1056.128906 -3963.296875 1022.730469 -3968.25 C 989.328125 -3973.207031 955.828125 -3977.335938 922.226562 -3980.648438 C 888.625 -3983.957031 854.960938 -3986.441406 821.234375 -3988.097656 C 787.511719 -3989.753906 753.765625 -3990.582031 720 -3990.582031 Z M 720 -3990.582031 "/>
</g>
</svg>
