<?xml version="1.0" encoding="UTF-8"?>
<svg xmlns="http://www.w3.org/2000/svg" xmlns:xlink="http://www.w3.org/1999/xlink" width="375pt" height="374.999991pt" viewBox="0 0 375 374.999991" version="1.2">
<defs>
<clipPath id="clip1">
  <path d="M 78.851562 78.851562 L 296.351562 78.851562 L 296.351562 296.351562 L 78.851562 296.351562 Z M 78.851562 78.851562 "/>
</clipPath>
<clipPath id="clip2">
  <path d="M 186 135.269531 L 219.902344 135.269531 L 219.902344 208 L 186 208 Z M 186 135.269531 "/>
</clipPath>
<clipPath id="clip3">
  <path d="M 155.402344 135.269531 L 188 135.269531 L 188 208 L 155.402344 208 Z M 155.402344 135.269531 "/>
</clipPath>
<clipPath id="clip4">
  <path d="M 187 194 L 219.902344 194 L 219.902344 239.519531 L 187 239.519531 Z M 187 194 "/>
</clipPath>
<clipPath id="clip5">
  <path d="M 155.402344 194 L 188 194 L 188 239.519531 L 155.402344 239.519531 Z M 155.402344 194 "/>
</clipPath>
<clipPath id="clip6">
  <path d="M 187 173 L 219.902344 173 L 219.902344 208 L 187 208 Z M 187 173 "/>
</clipPath>
<clipPath id="clip7">
  <path d="M 155.402344 173 L 188 173 L 188 208 L 155.402344 208 Z M 155.402344 173 "/>
</clipPath>
</defs>
<g id="surface1">
<g clip-path="url(#clip1)" clip-rule="nonzero">
<path style=" stroke:none;fill-rule:nonzero;fill:rgb(89.408875%,89.408875%,89.408875%);fill-opacity:1;" d="M 296.292969 187.558594 C 296.292969 189.339844 296.25 191.117188 296.160156 192.894531 C 296.074219 194.671875 295.945312 196.445312 295.769531 198.21875 C 295.59375 199.988281 295.375 201.753906 295.117188 203.515625 C 294.855469 205.273438 294.550781 207.027344 294.203125 208.773438 C 293.855469 210.519531 293.464844 212.253906 293.035156 213.980469 C 292.601562 215.707031 292.128906 217.421875 291.609375 219.125 C 291.09375 220.824219 290.535156 222.515625 289.9375 224.191406 C 289.335938 225.867188 288.695312 227.527344 288.015625 229.171875 C 287.335938 230.8125 286.613281 232.441406 285.851562 234.050781 C 285.09375 235.65625 284.292969 237.246094 283.453125 238.816406 C 282.613281 240.386719 281.738281 241.933594 280.824219 243.460938 C 279.90625 244.984375 278.957031 246.488281 277.96875 247.96875 C 276.980469 249.449219 275.953125 250.902344 274.894531 252.332031 C 273.835938 253.761719 272.742188 255.164062 271.613281 256.539062 C 270.484375 257.914062 269.320312 259.261719 268.125 260.582031 C 266.929688 261.898438 265.703125 263.1875 264.445312 264.445312 C 263.1875 265.703125 261.898438 266.929688 260.582031 268.125 C 259.261719 269.320312 257.914062 270.484375 256.539062 271.613281 C 255.164062 272.742188 253.761719 273.835938 252.332031 274.894531 C 250.902344 275.953125 249.449219 276.980469 247.96875 277.96875 C 246.488281 278.957031 244.984375 279.90625 243.460938 280.824219 C 241.933594 281.738281 240.386719 282.613281 238.816406 283.453125 C 237.246094 284.292969 235.65625 285.09375 234.050781 285.851562 C 232.441406 286.613281 230.8125 287.335938 229.171875 288.015625 C 227.527344 288.695312 225.867188 289.335938 224.191406 289.9375 C 222.515625 290.535156 220.824219 291.09375 219.125 291.609375 C 217.421875 292.128906 215.707031 292.601562 213.980469 293.035156 C 212.253906 293.464844 210.519531 293.855469 208.773438 294.203125 C 207.027344 294.550781 205.273438 294.855469 203.515625 295.117188 C 201.753906 295.375 199.988281 295.59375 198.21875 295.769531 C 196.445312 295.945312 194.671875 296.074219 192.894531 296.160156 C 191.117188 296.25 189.339844 296.292969 187.558594 296.292969 C 185.78125 296.292969 184 296.25 182.222656 296.160156 C 180.445312 296.074219 178.671875 295.945312 176.902344 295.769531 C 175.132812 295.59375 173.367188 295.375 171.605469 295.117188 C 169.84375 294.855469 168.09375 294.550781 166.347656 294.203125 C 164.601562 293.855469 162.867188 293.464844 161.140625 293.035156 C 159.414062 292.601562 157.699219 292.128906 155.996094 291.609375 C 154.292969 291.09375 152.605469 290.535156 150.929688 289.9375 C 149.253906 289.335938 147.59375 288.695312 145.949219 288.015625 C 144.304688 287.335938 142.679688 286.613281 141.070312 285.851562 C 139.460938 285.09375 137.871094 284.292969 136.304688 283.453125 C 134.734375 282.613281 133.1875 281.738281 131.660156 280.824219 C 130.132812 279.90625 128.628906 278.957031 127.152344 277.96875 C 125.671875 276.980469 124.21875 275.953125 122.789062 274.894531 C 121.359375 273.835938 119.957031 272.742188 118.582031 271.613281 C 117.203125 270.484375 115.859375 269.320312 114.539062 268.125 C 113.21875 266.929688 111.933594 265.703125 110.675781 264.445312 C 109.414062 263.1875 108.1875 261.898438 106.992188 260.582031 C 105.800781 259.261719 104.636719 257.914062 103.507812 256.539062 C 102.378906 255.164062 101.285156 253.761719 100.222656 252.332031 C 99.164062 250.902344 98.140625 249.449219 97.152344 247.96875 C 96.164062 246.488281 95.210938 244.984375 94.296875 243.460938 C 93.382812 241.933594 92.503906 240.386719 91.664062 238.816406 C 90.828125 237.246094 90.027344 235.65625 89.265625 234.050781 C 88.503906 232.441406 87.785156 230.8125 87.105469 229.171875 C 86.421875 227.527344 85.78125 225.867188 85.183594 224.191406 C 84.582031 222.515625 84.023438 220.824219 83.507812 219.125 C 82.992188 217.421875 82.519531 215.707031 82.085938 213.980469 C 81.652344 212.253906 81.261719 210.519531 80.917969 208.773438 C 80.570312 207.027344 80.265625 205.273438 80.003906 203.515625 C 79.742188 201.753906 79.523438 199.988281 79.351562 198.21875 C 79.175781 196.445312 79.046875 194.671875 78.957031 192.894531 C 78.871094 191.117188 78.828125 189.339844 78.828125 187.558594 C 78.828125 185.78125 78.871094 184 78.957031 182.222656 C 79.046875 180.445312 79.175781 178.671875 79.351562 176.902344 C 79.523438 175.132812 79.742188 173.367188 80.003906 171.605469 C 80.265625 169.84375 80.570312 168.09375 80.917969 166.347656 C 81.261719 164.601562 81.652344 162.867188 82.085938 161.140625 C 82.519531 159.414062 82.992188 157.699219 83.507812 155.996094 C 84.023438 154.292969 84.582031 152.605469 85.183594 150.929688 C 85.78125 149.253906 86.421875 147.59375 87.105469 145.949219 C 87.785156 144.304688 88.503906 142.679688 89.265625 141.070312 C 90.027344 139.460938 90.828125 137.871094 91.664062 136.304688 C 92.503906 134.734375 93.382812 133.1875 94.296875 131.660156 C 95.210938 130.132812 96.164062 128.628906 97.152344 127.152344 C 98.140625 125.671875 99.164062 124.21875 100.222656 122.789062 C 101.285156 121.359375 102.378906 119.957031 103.507812 118.582031 C 104.636719 117.203125 105.800781 115.859375 106.992188 114.539062 C 108.1875 113.21875 109.414062 111.933594 110.675781 110.675781 C 111.933594 109.414062 113.21875 108.1875 114.539062 106.992188 C 115.859375 105.800781 117.203125 104.636719 118.582031 103.507812 C 119.957031 102.378906 121.359375 101.285156 122.789062 100.222656 C 124.21875 99.164062 125.671875 98.140625 127.152344 97.152344 C 128.628906 96.164062 130.132812 95.210938 131.660156 94.296875 C 133.1875 93.382812 134.734375 92.503906 136.304688 91.664062 C 137.871094 90.828125 139.460938 90.027344 141.070312 89.265625 C 142.679688 88.503906 144.304688 87.785156 145.949219 87.105469 C 147.59375 86.421875 149.253906 85.78125 150.929688 85.183594 C 152.605469 84.582031 154.292969 84.023438 155.996094 83.507812 C 157.699219 82.992188 159.414062 82.519531 161.140625 82.085938 C 162.867188 81.652344 164.601562 81.261719 166.347656 80.917969 C 168.09375 80.570312 169.84375 80.265625 171.605469 80.003906 C 173.367188 79.742188 175.132812 79.523438 176.902344 79.351562 C 178.671875 79.175781 180.445312 79.046875 182.222656 78.957031 C 184 78.871094 185.78125 78.828125 187.558594 78.828125 C 189.339844 78.828125 191.117188 78.871094 192.894531 78.957031 C 194.671875 79.046875 196.445312 79.175781 198.21875 79.351562 C 199.988281 79.523438 201.753906 79.742188 203.515625 80.003906 C 205.273438 80.265625 207.027344 80.570312 208.773438 80.917969 C 210.519531 81.261719 212.253906 81.652344 213.980469 82.085938 C 215.707031 82.519531 217.421875 82.992188 219.125 83.507812 C 220.824219 84.023438 222.515625 84.582031 224.191406 85.183594 C 225.867188 85.78125 227.527344 86.421875 229.171875 87.105469 C 230.8125 87.785156 232.441406 88.503906 234.050781 89.265625 C 235.65625 90.027344 237.246094 90.828125 238.816406 91.664062 C 240.386719 92.503906 241.933594 93.382812 243.460938 94.296875 C 244.984375 95.210938 246.488281 96.164062 247.96875 97.152344 C 249.449219 98.140625 250.902344 99.164062 252.332031 100.222656 C 253.761719 101.285156 255.164062 102.378906 256.539062 103.507812 C 257.914062 104.636719 259.261719 105.800781 260.582031 106.992188 C 261.898438 108.1875 263.1875 109.414062 264.445312 110.675781 C 265.703125 111.933594 266.929688 113.21875 268.125 114.539062 C 269.320312 115.859375 270.484375 117.203125 271.613281 118.582031 C 272.742188 119.957031 273.835938 121.359375 274.894531 122.789062 C 275.953125 124.21875 276.980469 125.671875 277.96875 127.152344 C 278.957031 128.628906 279.90625 130.132812 280.824219 131.660156 C 281.738281 133.1875 282.613281 134.734375 283.453125 136.304688 C 284.292969 137.871094 285.09375 139.460938 285.851562 141.070312 C 286.613281 142.679688 287.335938 144.304688 288.015625 145.949219 C 288.695312 147.59375 289.335938 149.253906 289.9375 150.929688 C 290.535156 152.605469 291.09375 154.292969 291.609375 155.996094 C 292.128906 157.699219 292.601562 159.414062 293.035156 161.140625 C 293.464844 162.867188 293.855469 164.601562 294.203125 166.347656 C 294.550781 168.09375 294.855469 169.84375 295.117188 171.605469 C 295.375 173.367188 295.59375 175.132812 295.769531 176.902344 C 295.945312 178.671875 296.074219 180.445312 296.160156 182.222656 C 296.25 184 296.292969 185.78125 296.292969 187.558594 Z M 296.292969 187.558594 "/>
</g>
<path style=" stroke:none;fill-rule:nonzero;fill:rgb(0%,34.118652%,85.099792%);fill-opacity:1;" d="M 231.042969 87.90625 L 187.558594 187.558594 C 210.433594 179.324219 277.953125 158.570312 290.714844 153.207031 C 281.3125 124.996094 260.449219 100.730469 231.042969 87.90625 Z M 231.042969 87.90625 "/>
<path style=" stroke:none;fill-rule:nonzero;fill:rgb(0%,34.118652%,85.099792%);fill-opacity:1;" d="M 287.074219 231.367188 L 187.558594 187.558594 C 195.726562 210.460938 216.257812 278.046875 221.578125 290.828125 C 249.816406 281.515625 274.152344 260.722656 287.074219 231.367188 Z M 287.074219 231.367188 "/>
<path style=" stroke:none;fill-rule:nonzero;fill:rgb(0%,34.118652%,85.099792%);fill-opacity:1;" d="M 143.4375 286.929688 L 187.558594 187.558594 C 164.632812 195.652344 96.980469 215.96875 84.179688 221.246094 C 93.40625 249.519531 114.117188 273.921875 143.4375 286.929688 Z M 143.4375 286.929688 "/>
<path style=" stroke:none;fill-rule:nonzero;fill:rgb(0%,34.118652%,85.099792%);fill-opacity:1;" d="M 88.324219 143.121094 L 187.558594 187.558594 C 179.535156 164.609375 159.441406 96.886719 154.207031 84.078125 C 125.898438 93.210938 101.4375 113.84375 88.324219 143.121094 Z M 88.324219 143.121094 "/>
<path style=" stroke:none;fill-rule:nonzero;fill:rgb(89.408875%,89.408875%,89.408875%);fill-opacity:1;" d="M 256.636719 187.558594 C 256.636719 188.691406 256.609375 189.820312 256.554688 190.949219 C 256.5 192.078125 256.417969 193.207031 256.304688 194.332031 C 256.195312 195.457031 256.054688 196.578125 255.890625 197.695312 C 255.722656 198.8125 255.53125 199.925781 255.308594 201.035156 C 255.089844 202.144531 254.84375 203.246094 254.566406 204.34375 C 254.292969 205.441406 253.992188 206.53125 253.664062 207.613281 C 253.335938 208.695312 252.980469 209.765625 252.601562 210.832031 C 252.21875 211.894531 251.8125 212.949219 251.378906 213.996094 C 250.945312 215.039062 250.488281 216.074219 250.003906 217.09375 C 249.523438 218.117188 249.015625 219.125 248.480469 220.121094 C 247.949219 221.121094 247.390625 222.101562 246.808594 223.074219 C 246.230469 224.042969 245.625 224.996094 244.996094 225.9375 C 244.367188 226.878906 243.71875 227.800781 243.042969 228.710938 C 242.371094 229.617188 241.675781 230.507812 240.957031 231.382812 C 240.242188 232.257812 239.503906 233.113281 238.742188 233.949219 C 237.984375 234.789062 237.203125 235.605469 236.40625 236.40625 C 235.605469 237.203125 234.789062 237.984375 233.949219 238.742188 C 233.113281 239.503906 232.257812 240.242188 231.382812 240.957031 C 230.507812 241.675781 229.617188 242.371094 228.710938 243.042969 C 227.800781 243.71875 226.878906 244.367188 225.9375 244.996094 C 224.996094 245.625 224.042969 246.230469 223.074219 246.808594 C 222.101562 247.390625 221.121094 247.949219 220.121094 248.480469 C 219.125 249.015625 218.117188 249.523438 217.09375 250.003906 C 216.074219 250.488281 215.039062 250.945312 213.996094 251.378906 C 212.949219 251.8125 211.894531 252.21875 210.832031 252.601562 C 209.765625 252.980469 208.695312 253.335938 207.613281 253.664062 C 206.53125 253.992188 205.441406 254.292969 204.34375 254.566406 C 203.246094 254.84375 202.144531 255.089844 201.035156 255.308594 C 199.925781 255.53125 198.8125 255.722656 197.695312 255.890625 C 196.578125 256.054688 195.457031 256.195312 194.332031 256.304688 C 193.207031 256.417969 192.078125 256.5 190.949219 256.554688 C 189.820312 256.609375 188.691406 256.636719 187.558594 256.636719 C 186.429688 256.636719 185.300781 256.609375 184.171875 256.554688 C 183.039062 256.5 181.914062 256.417969 180.789062 256.304688 C 179.664062 256.195312 178.542969 256.054688 177.421875 255.890625 C 176.304688 255.722656 175.191406 255.53125 174.082031 255.308594 C 172.972656 255.089844 171.871094 254.84375 170.773438 254.566406 C 169.679688 254.292969 168.589844 253.992188 167.507812 253.664062 C 166.425781 253.335938 165.351562 252.980469 164.289062 252.601562 C 163.222656 252.21875 162.167969 251.8125 161.125 251.378906 C 160.082031 250.945312 159.046875 250.488281 158.023438 250.003906 C 157.003906 249.523438 155.992188 249.015625 154.996094 248.480469 C 154 247.949219 153.015625 247.390625 152.046875 246.808594 C 151.078125 246.230469 150.121094 245.625 149.183594 244.996094 C 148.242188 244.367188 147.316406 243.71875 146.410156 243.042969 C 145.5 242.371094 144.609375 241.675781 143.738281 240.957031 C 142.863281 240.242188 142.007812 239.503906 141.167969 238.742188 C 140.332031 237.984375 139.511719 237.203125 138.714844 236.40625 C 137.914062 235.605469 137.136719 234.789062 136.375 233.949219 C 135.617188 233.113281 134.878906 232.257812 134.160156 231.382812 C 133.445312 230.507812 132.75 229.617188 132.074219 228.710938 C 131.402344 227.800781 130.75 226.878906 130.125 225.9375 C 129.496094 224.996094 128.890625 224.042969 128.308594 223.074219 C 127.726562 222.101562 127.171875 221.121094 126.636719 220.121094 C 126.105469 219.125 125.597656 218.117188 125.113281 217.09375 C 124.628906 216.074219 124.171875 215.039062 123.738281 213.996094 C 123.308594 212.949219 122.898438 211.894531 122.519531 210.832031 C 122.136719 209.765625 121.785156 208.695312 121.457031 207.613281 C 121.128906 206.53125 120.828125 205.441406 120.550781 204.34375 C 120.277344 203.246094 120.03125 202.144531 119.808594 201.035156 C 119.589844 199.925781 119.394531 198.8125 119.230469 197.695312 C 119.0625 196.578125 118.925781 195.457031 118.8125 194.332031 C 118.703125 193.207031 118.621094 192.078125 118.566406 190.949219 C 118.507812 189.820312 118.480469 188.691406 118.480469 187.558594 C 118.480469 186.429688 118.507812 185.300781 118.566406 184.171875 C 118.621094 183.039062 118.703125 181.914062 118.8125 180.789062 C 118.925781 179.664062 119.0625 178.542969 119.230469 177.421875 C 119.394531 176.304688 119.589844 175.191406 119.808594 174.082031 C 120.03125 172.972656 120.277344 171.871094 120.550781 170.773438 C 120.828125 169.679688 121.128906 168.589844 121.457031 167.507812 C 121.785156 166.425781 122.136719 165.351562 122.519531 164.289062 C 122.898438 163.222656 123.308594 162.167969 123.738281 161.125 C 124.171875 160.082031 124.628906 159.046875 125.113281 158.023438 C 125.597656 157.003906 126.105469 155.992188 126.636719 154.996094 C 127.171875 154 127.726562 153.015625 128.308594 152.046875 C 128.890625 151.078125 129.496094 150.121094 130.125 149.183594 C 130.75 148.242188 131.402344 147.316406 132.074219 146.410156 C 132.75 145.5 133.445312 144.609375 134.160156 143.738281 C 134.878906 142.863281 135.617188 142.007812 136.375 141.167969 C 137.136719 140.332031 137.914062 139.511719 138.714844 138.714844 C 139.511719 137.914062 140.332031 137.136719 141.167969 136.375 C 142.007812 135.617188 142.863281 134.878906 143.738281 134.160156 C 144.609375 133.445312 145.5 132.75 146.410156 132.074219 C 147.316406 131.402344 148.242188 130.75 149.183594 130.125 C 150.121094 129.496094 151.078125 128.890625 152.046875 128.308594 C 153.015625 127.726562 154 127.171875 154.996094 126.636719 C 155.992188 126.105469 157.003906 125.597656 158.023438 125.113281 C 159.046875 124.628906 160.082031 124.171875 161.125 123.738281 C 162.167969 123.308594 163.222656 122.898438 164.289062 122.519531 C 165.351562 122.136719 166.425781 121.785156 167.507812 121.457031 C 168.589844 121.128906 169.679688 120.828125 170.773438 120.550781 C 171.871094 120.277344 172.972656 120.03125 174.082031 119.808594 C 175.191406 119.589844 176.304688 119.394531 177.421875 119.230469 C 178.542969 119.0625 179.664062 118.925781 180.789062 118.8125 C 181.914062 118.703125 183.042969 118.621094 184.171875 118.566406 C 185.300781 118.507812 186.429688 118.480469 187.558594 118.480469 C 188.691406 118.480469 189.820312 118.507812 190.949219 118.566406 C 192.078125 118.621094 193.207031 118.703125 194.332031 118.8125 C 195.457031 118.925781 196.578125 119.0625 197.695312 119.230469 C 198.8125 119.394531 199.925781 119.589844 201.035156 119.808594 C 202.144531 120.03125 203.246094 120.277344 204.34375 120.550781 C 205.441406 120.828125 206.53125 121.128906 207.613281 121.457031 C 208.695312 121.785156 209.765625 122.136719 210.832031 122.519531 C 211.894531 122.898438 212.949219 123.308594 213.996094 123.738281 C 215.039062 124.171875 216.074219 124.628906 217.09375 125.113281 C 218.117188 125.597656 219.125 126.105469 220.121094 126.636719 C 221.121094 127.171875 222.101562 127.726562 223.074219 128.308594 C 224.042969 128.890625 224.996094 129.496094 225.9375 130.125 C 226.878906 130.75 227.800781 131.402344 228.710938 132.074219 C 229.617188 132.75 230.507812 133.445312 231.382812 134.160156 C 232.257812 134.878906 233.113281 135.617188 233.949219 136.375 C 234.789062 137.136719 235.605469 137.914062 236.40625 138.714844 C 237.203125 139.511719 237.984375 140.332031 238.742188 141.167969 C 239.503906 142.007812 240.242188 142.863281 240.957031 143.738281 C 241.675781 144.609375 242.371094 145.5 243.042969 146.410156 C 243.71875 147.316406 244.367188 148.242188 244.996094 149.183594 C 245.625 150.121094 246.230469 151.078125 246.808594 152.046875 C 247.390625 153.015625 247.949219 154 248.480469 154.996094 C 249.015625 155.992188 249.523438 157.003906 250.003906 158.023438 C 250.488281 159.046875 250.945312 160.082031 251.378906 161.125 C 251.8125 162.167969 252.21875 163.222656 252.601562 164.289062 C 252.980469 165.351562 253.335938 166.425781 253.664062 167.507812 C 253.992188 168.589844 254.292969 169.679688 254.566406 170.773438 C 254.84375 171.871094 255.089844 172.972656 255.308594 174.082031 C 255.53125 175.191406 255.722656 176.304688 255.890625 177.421875 C 256.054688 178.542969 256.195312 179.664062 256.304688 180.789062 C 256.417969 181.914062 256.5 183.042969 256.554688 184.171875 C 256.609375 185.300781 256.636719 186.429688 256.636719 187.558594 Z M 256.636719 187.558594 "/>
<path style=" stroke:none;fill-rule:nonzero;fill:rgb(89.408875%,89.408875%,89.408875%);fill-opacity:1;" d="M 248.265625 187.558594 C 248.265625 189.546875 248.167969 191.53125 247.972656 193.511719 C 247.777344 195.488281 247.488281 197.453125 247.097656 199.402344 C 246.710938 201.351562 246.226562 203.277344 245.652344 205.179688 C 245.074219 207.085938 244.40625 208.953125 243.644531 210.789062 C 242.882812 212.628906 242.035156 214.421875 241.097656 216.175781 C 240.160156 217.929688 239.140625 219.632812 238.035156 221.285156 C 236.929688 222.9375 235.746094 224.535156 234.484375 226.070312 C 233.222656 227.609375 231.890625 229.078125 230.484375 230.484375 C 229.078125 231.890625 227.609375 233.222656 226.070312 234.484375 C 224.535156 235.746094 222.9375 236.929688 221.285156 238.035156 C 219.632812 239.140625 217.929688 240.160156 216.175781 241.097656 C 214.421875 242.035156 212.628906 242.882812 210.789062 243.644531 C 208.953125 244.40625 207.085938 245.074219 205.179688 245.652344 C 203.277344 246.226562 201.351562 246.710938 199.402344 247.097656 C 197.453125 247.488281 195.488281 247.777344 193.511719 247.972656 C 191.53125 248.167969 189.546875 248.265625 187.558594 248.265625 C 185.570312 248.265625 183.589844 248.167969 181.609375 247.972656 C 179.632812 247.777344 177.667969 247.488281 175.714844 247.097656 C 173.765625 246.710938 171.839844 246.226562 169.9375 245.652344 C 168.035156 245.074219 166.164062 244.40625 164.328125 243.644531 C 162.492188 242.882812 160.695312 242.035156 158.941406 241.097656 C 157.191406 240.160156 155.488281 239.140625 153.832031 238.035156 C 152.179688 236.929688 150.585938 235.746094 149.046875 234.484375 C 147.511719 233.222656 146.039062 231.890625 144.632812 230.484375 C 143.226562 229.078125 141.894531 227.609375 140.632812 226.070312 C 139.371094 224.535156 138.1875 222.9375 137.085938 221.285156 C 135.980469 219.632812 134.960938 217.929688 134.023438 216.175781 C 133.085938 214.421875 132.234375 212.628906 131.476562 210.789062 C 130.714844 208.953125 130.046875 207.085938 129.46875 205.179688 C 128.890625 203.277344 128.410156 201.351562 128.019531 199.402344 C 127.632812 197.453125 127.339844 195.488281 127.144531 193.511719 C 126.953125 191.53125 126.855469 189.546875 126.855469 187.558594 C 126.855469 185.570312 126.953125 183.589844 127.144531 181.609375 C 127.339844 179.632812 127.632812 177.667969 128.019531 175.714844 C 128.410156 173.765625 128.890625 171.839844 129.46875 169.9375 C 130.046875 168.035156 130.714844 166.164062 131.476562 164.328125 C 132.234375 162.492188 133.085938 160.695312 134.023438 158.941406 C 134.960938 157.191406 135.980469 155.488281 137.085938 153.832031 C 138.1875 152.179688 139.371094 150.585938 140.632812 149.046875 C 141.894531 147.511719 143.226562 146.039062 144.632812 144.632812 C 146.039062 143.226562 147.511719 141.894531 149.046875 140.632812 C 150.585938 139.371094 152.179688 138.1875 153.832031 137.085938 C 155.488281 135.980469 157.191406 134.960938 158.941406 134.023438 C 160.695312 133.085938 162.492188 132.234375 164.328125 131.476562 C 166.164062 130.714844 168.035156 130.046875 169.9375 129.46875 C 171.839844 128.890625 173.765625 128.410156 175.714844 128.019531 C 177.667969 127.632812 179.632812 127.339844 181.609375 127.144531 C 183.589844 126.953125 185.570312 126.855469 187.558594 126.855469 C 189.546875 126.855469 191.53125 126.953125 193.511719 127.144531 C 195.488281 127.339844 197.453125 127.632812 199.402344 128.019531 C 201.351562 128.410156 203.277344 128.890625 205.179688 129.46875 C 207.085938 130.046875 208.953125 130.714844 210.789062 131.476562 C 212.628906 132.234375 214.421875 133.085938 216.175781 134.023438 C 217.929688 134.960938 219.632812 135.980469 221.285156 137.085938 C 222.9375 138.1875 224.535156 139.371094 226.070312 140.632812 C 227.609375 141.894531 229.078125 143.226562 230.484375 144.632812 C 231.890625 146.039062 233.222656 147.511719 234.484375 149.046875 C 235.746094 150.585938 236.929688 152.179688 238.035156 153.832031 C 239.140625 155.488281 240.160156 157.191406 241.097656 158.941406 C 242.035156 160.695312 242.882812 162.492188 243.644531 164.328125 C 244.40625 166.164062 245.074219 168.035156 245.652344 169.9375 C 246.226562 171.839844 246.710938 173.765625 247.097656 175.714844 C 247.488281 177.667969 247.777344 179.632812 247.972656 181.609375 C 248.167969 183.589844 248.265625 185.570312 248.265625 187.558594 Z M 248.265625 187.558594 "/>
<path style=" stroke:none;fill-rule:nonzero;fill:rgb(89.408875%,89.408875%,89.408875%);fill-opacity:1;" d="M 190.050781 149.441406 L 220.488281 178.753906 C 228.910156 186.867188 229.335938 200.5625 221.058594 208.824219 C 213.042969 216.820312 200.074219 216.964844 191.882812 209.078125 L 187.636719 204.996094 C 187.628906 204.988281 187.621094 204.988281 187.609375 204.996094 L 183.679688 208.78125 C 175.257812 216.898438 161.546875 216.804688 153.609375 208.21875 C 145.925781 199.914062 146.269531 186.9375 154.453125 179.050781 L 185.207031 149.441406 C 186.5625 148.136719 188.703125 148.136719 190.050781 149.441406 Z M 190.050781 149.441406 "/>
<path style=" stroke:none;fill-rule:nonzero;fill:rgb(89.408875%,89.408875%,89.408875%);fill-opacity:1;" d="M 200.785156 226.566406 L 174.777344 226.660156 L 178.410156 203.144531 L 196.996094 203.085938 Z M 200.785156 226.566406 "/>
<g clip-path="url(#clip2)" clip-rule="nonzero">
<path style=" stroke:none;fill-rule:nonzero;fill:rgb(0%,0%,0%);fill-opacity:1;" d="M 187.640625 135.269531 L 186.941406 137.644531 L 186.941406 206.582031 L 187.640625 207.277344 L 219.859375 188.363281 Z M 187.640625 135.269531 "/>
</g>
<g clip-path="url(#clip3)" clip-rule="nonzero">
<path style=" stroke:none;fill-rule:nonzero;fill:rgb(39.219666%,39.219666%,39.219666%);fill-opacity:1;" d="M 187.640625 135.269531 L 155.425781 188.363281 L 187.640625 207.277344 Z M 187.640625 135.269531 "/>
</g>
<g clip-path="url(#clip4)" clip-rule="nonzero">
<path style=" stroke:none;fill-rule:nonzero;fill:rgb(0%,0%,0%);fill-opacity:1;" d="M 187.640625 213.335938 L 187.246094 213.816406 L 187.246094 238.371094 L 187.640625 239.523438 L 219.878906 194.433594 Z M 187.640625 213.335938 "/>
</g>
<g clip-path="url(#clip5)" clip-rule="nonzero">
<path style=" stroke:none;fill-rule:nonzero;fill:rgb(39.219666%,39.219666%,39.219666%);fill-opacity:1;" d="M 187.640625 239.523438 L 187.640625 213.335938 L 155.425781 194.433594 Z M 187.640625 239.523438 "/>
</g>
<g clip-path="url(#clip6)" clip-rule="nonzero">
<path style=" stroke:none;fill-rule:nonzero;fill:rgb(7.839966%,7.839966%,7.839966%);fill-opacity:1;" d="M 187.640625 207.277344 L 219.859375 188.363281 L 187.640625 173.820312 Z M 187.640625 207.277344 "/>
</g>
<g clip-path="url(#clip7)" clip-rule="nonzero">
<path style=" stroke:none;fill-rule:nonzero;fill:rgb(22.349548%,22.349548%,22.349548%);fill-opacity:1;" d="M 155.425781 188.363281 L 187.640625 207.277344 L 187.640625 173.820312 Z M 155.425781 188.363281 "/>
</g>
<path style=" stroke:none;fill-rule:nonzero;fill:rgb(100%,100%,100%);fill-opacity:1;" d="M 351.242188 40.980469 L 374.984375 -0.0429688 L 120.246094 -0.0429688 L 143.988281 40.980469 Z M 351.242188 40.980469 "/>
<path style=" stroke:none;fill-rule:nonzero;fill:rgb(100%,100%,100%);fill-opacity:1;" d="M 334.015625 231.097656 L 375.039062 254.839844 L 375.039062 0.101562 L 334.015625 23.84375 Z M 334.015625 231.097656 "/>
<path style=" stroke:none;fill-rule:nonzero;fill:rgb(100%,100%,100%);fill-opacity:1;" d="M 23.75 334.015625 L 0.0078125 375.039062 L 254.75 375.039062 L 231.007812 334.015625 Z M 23.75 334.015625 "/>
<path style=" stroke:none;fill-rule:nonzero;fill:rgb(100%,100%,100%);fill-opacity:1;" d="M 40.980469 143.898438 L -0.0429688 120.15625 L -0.0429688 374.898438 L 40.980469 351.15625 Z M 40.980469 143.898438 "/>
</g>
</svg>
