<?xml version="1.0" encoding="UTF-8"?>
<svg xmlns="http://www.w3.org/2000/svg" xmlns:xlink="http://www.w3.org/1999/xlink" width="1500pt" height="1499.999933pt" viewBox="0 0 1500 1499.999933" version="1.2">
<g id="surface1">
<path style=" stroke:none;fill-rule:nonzero;fill:rgb(100%,100%,100%);fill-opacity:1;" d="M 749.792969 1499.757812 C 336.261719 1499.757812 -0.171875 1163.324219 -0.171875 749.796875 C -0.171875 336.261719 336.261719 -0.167969 749.792969 -0.167969 C 1163.328125 -0.167969 1499.761719 336.265625 1499.761719 749.796875 C 1499.761719 1163.324219 1163.328125 1499.757812 749.792969 1499.757812 Z M 749.792969 81.6875 C 381.394531 81.6875 81.683594 381.398438 81.683594 749.796875 C 81.683594 1118.195312 381.394531 1417.902344 749.792969 1417.902344 C 1118.195312 1417.902344 1417.90625 1118.195312 1417.90625 749.796875 C 1417.90625 381.398438 1118.195312 81.6875 749.792969 81.6875 Z M 749.792969 81.6875 "/>
<path style=" stroke:none;fill-rule:nonzero;fill:rgb(100%,100%,100%);fill-opacity:1;" d="M 574.835938 1071.574219 C 564.363281 1071.574219 553.890625 1067.574219 545.898438 1059.585938 L 334.109375 847.800781 C 318.125 831.820312 318.121094 805.902344 334.109375 789.917969 C 350.089844 773.9375 376.007812 773.9375 391.988281 789.917969 L 574.835938 972.765625 L 1107.601562 440 C 1123.585938 424.019531 1149.496094 424.019531 1165.484375 440 C 1181.46875 455.984375 1181.46875 481.898438 1165.484375 497.886719 L 603.777344 1059.585938 C 595.789062 1067.578125 585.3125 1071.574219 574.835938 1071.574219 Z M 574.835938 1071.574219 "/>
</g>
</svg>
