<?xml version="1.0" encoding="UTF-8"?>
<svg xmlns="http://www.w3.org/2000/svg" xmlns:xlink="http://www.w3.org/1999/xlink" width="384pt" height="383.999986pt" viewBox="0 0 384 383.999986" version="1.2">
<defs>
<clipPath id="clip1">
  <path d="M 0.894531 233.28125 L 57.761719 233.28125 L 57.761719 289.808594 L 0.894531 289.808594 Z M 0.894531 233.28125 "/>
</clipPath>
</defs>
<g id="surface1">
<path style=" stroke:none;fill-rule:nonzero;fill:rgb(0%,0%,0%);fill-opacity:1;" d="M 375.082031 150.789062 L 130.875 150.789062 C 126.523438 150.789062 122.996094 147.273438 122.996094 142.9375 C 122.996094 138.597656 126.523438 135.082031 130.875 135.082031 L 356.0625 135.082031 L 328.667969 107.769531 C 325.589844 104.699219 325.589844 99.726562 328.667969 96.660156 C 331.746094 93.59375 336.730469 93.59375 339.808594 96.660156 L 380.652344 137.382812 C 382.90625 139.628906 383.578125 143.007812 382.359375 145.941406 C 381.140625 148.878906 378.265625 150.789062 375.082031 150.789062 "/>
<path style=" stroke:none;fill-rule:nonzero;fill:rgb(0%,0%,0%);fill-opacity:1;" d="M 334.179688 191.570312 C 332.164062 191.570312 330.148438 190.804688 328.609375 189.269531 C 325.535156 186.203125 325.535156 181.230469 328.609375 178.164062 L 369.511719 137.382812 C 372.585938 134.316406 377.574219 134.316406 380.652344 137.382812 C 383.726562 140.449219 383.726562 145.421875 380.652344 148.492188 L 339.75 189.269531 C 338.210938 190.804688 336.195312 191.570312 334.179688 191.570312 "/>
<path style=" stroke:none;fill-rule:nonzero;fill:rgb(0%,0%,0%);fill-opacity:1;" d="M 252.976562 249.03125 L 8.769531 249.03125 C 5.585938 249.03125 2.714844 247.117188 1.492188 244.183594 C 0.273438 241.246094 0.949219 237.867188 3.203125 235.621094 L 44.042969 194.902344 C 47.121094 191.832031 52.109375 191.832031 55.183594 194.902344 C 58.261719 197.96875 58.261719 202.941406 55.183594 206.007812 L 27.789062 233.320312 L 252.976562 233.320312 C 257.328125 233.320312 260.855469 236.839844 260.855469 241.175781 C 260.855469 245.515625 257.328125 249.03125 252.976562 249.03125 "/>
<g clip-path="url(#clip1)" clip-rule="nonzero">
<path style=" stroke:none;fill-rule:nonzero;fill:rgb(0%,0%,0%);fill-opacity:1;" d="M 49.671875 289.808594 C 47.65625 289.808594 45.640625 289.042969 44.101562 287.507812 L 3.203125 246.730469 C 0.125 243.664062 0.125 238.691406 3.203125 235.625 C 6.277344 232.554688 11.265625 232.554688 14.34375 235.625 L 55.242188 276.402344 C 58.320312 279.46875 58.320312 284.441406 55.242188 287.507812 C 53.707031 289.042969 51.6875 289.808594 49.671875 289.808594 "/>
</g>
</g>
</svg>
